<svg xmlns="http://www.w3.org/2000/svg" width="512" height="512"><title>behance</title><metadata>image/svg+xmlbehanceThomas Boettcherhttps://creativecommons.org/licenses/by/4.0/Thomas Boettcherztatementhttp://z-icon.com/</metadata><title>background</title><rect fill="none" height="402" width="582" y="-1" x="-1"/><title>Layer 1</title><circle fill="#000000" fill-rule="nonzero" stroke-width="10" stroke-miterlimit="4" r="256" cy="256" cx="256"/><g transform="scale(5.119999885559082) "><path fill="#ffffff" d="m62.1 33.8l15.6 0 0 3.8 -15.6 0 0-3.8zm-9.8 29.9c-0.8 1.4-1.8 2.6-3 3.5 -1.3 0.9-2.8 1.6-4.4 2 -1.6 0.5-3.3 0.7-5 0.7l-18.9 0 0-38.7 18.2 0c1.9 0 3.5 0.2 5 0.5 1.5 0.3 2.8 0.9 3.9 1.6 1 0.8 1.9 1.7 2.6 2.9 0.6 1.2 0.9 2.8 0.9 4.6 0 2-0.5 3.6-1.3 4.8 -0.9 1.3-2.2 2.4-4 3.2 2.4 0.7 4.2 1.9 5.3 3.6 1.1 1.7 1.7 3.8 1.7 6.2 0.2 2-0.2 3.7-0.9 5.1zm31.6-6l-20.2 0c0 2.2 0.8 4.3 1.9 5.4 1.1 1.1 2.8 1.7 4.9 1.7 1.5 0 2.9-0.4 4-1.1 1.1-0.8 1.8-1.6 2.1-2.5l6.7 0c-1 3.4-2.8 5.8-5 7.2 -2.2 1.4-4.9 2.2-8.2 2.2 -2.2 0-4.2-0.4-6-1 -1.8-0.8-3.2-1.7-4.6-3 -1.2-1.3-2.2-2.8-2.8-4.6 -0.7-1.8-1-3.8-1-6 0-2.1 0.4-4.1 1-5.9 0.7-1.8 1.7-3.4 2.9-4.6 1.2-1.3 2.8-2.4 4.6-3.1 1.8-0.8 3.7-1.1 5.9-1.1 2.4 0 4.5 0.5 6.3 1.4 1.8 0.9 3.2 2.2 4.4 3.7 1.1 1.5 2 3.3 2.5 5.3 0.7 1.9 0.9 4 0.7 6.2z"/><path fill="#000000" d="m40.2 44.9c0.8-0.6 1.2-1.5 1.2-2.9 0-0.8-0.2-1.3-0.4-1.8 -0.2-0.5-0.6-0.8-1.1-1.1 -0.5-0.2-0.9-0.5-1.5-0.5 -0.5-0.1-1.2-0.2-1.8-0.2l-6.5 0 0 7.3 7 0c1.2-0.1 2.2-0.4 3.1-0.9z"/><path fill="#000000" d="m41.6 55.2c-1-0.7-2.1-1-3.7-1l-7.8 0 0 8.9 7.6 0c0.7 0 1.4-0.1 2-0.2 0.6-0.2 1.2-0.4 1.7-0.7 0.5-0.3 0.9-0.7 1.2-1.3 0.3-0.6 0.4-1.3 0.4-2.1 0-1.7-0.5-2.9-1.4-3.6z"/><path fill="#000000" d="m70.3 46.5c-1.1 0-2.1 0.2-2.8 0.6 -0.7 0.4-1.3 0.9-1.9 1.4 -0.4 0.6-0.8 1.1-1 1.9 -0.2 0.6-0.3 1.2-0.4 1.7l11.7 0c-0.2-1.9-0.8-3.2-1.7-4.1 -0.8-1-2.3-1.4-4.1-1.4z"/></g></svg>