<svg
   xmlns:dc="http://purl.org/dc/elements/1.1/"
   xmlns:cc="http://creativecommons.org/ns#"
   xmlns:rdf="http://www.w3.org/1999/02/22-rdf-syntax-ns#"
   xmlns:svg="http://www.w3.org/2000/svg"
   xmlns="http://www.w3.org/2000/svg"
   xmlns:sodipodi="http://sodipodi.sourceforge.net/DTD/sodipodi-0.dtd"
   xmlns:inkscape="http://www.inkscape.org/namespaces/inkscape"
   version="1.1"
   id="Layer_1"
   x="0px"
   y="0px"
   viewBox="0 0 512 512"
   xml:space="preserve"
   inkscape:version="0.91 r13725"
   sodipodi:docname="behance.svg"
   width="512"
   height="512"><title
   id="title3347">behance</title><metadata
   id="metadata19"><rdf:RDF><cc:Work
       rdf:about=""><dc:format>image/svg+xml</dc:format><dc:type
         rdf:resource="http://purl.org/dc/dcmitype/StillImage" /><dc:title>behance</dc:title><dc:creator><cc:Agent><dc:title>Thomas Boettcher</dc:title></cc:Agent></dc:creator><dc:rights><cc:Agent><dc:title>https://creativecommons.org/licenses/by/4.0/</dc:title></cc:Agent></dc:rights><dc:publisher><cc:Agent><dc:title>Thomas Boettcher</dc:title></cc:Agent></dc:publisher><dc:identifier>ztatement</dc:identifier><dc:relation>http://z-icon.com/</dc:relation></cc:Work></rdf:RDF></metadata><defs
   id="defs17" /><sodipodi:namedview
   pagecolor="#ffffff"
   bordercolor="#666666"
   borderopacity="1"
   objecttolerance="10"
   gridtolerance="10"
   guidetolerance="10"
   inkscape:pageopacity="0"
   inkscape:pageshadow="2"
   inkscape:window-width="1920"
   inkscape:window-height="1027"
   id="namedview15"
   showgrid="false"
   borderlayer="true"
   inkscape:showpageshadow="false"
   inkscape:zoom="1"
   inkscape:cx="164.90228"
   inkscape:cy="208.57627"
   inkscape:window-x="-8"
   inkscape:window-y="-8"
   inkscape:window-maximized="1"
   inkscape:current-layer="Layer_1" />
<circle
   style="opacity:1;fill:#000000;fill-opacity:1;fill-rule:nonzero;stroke:none;stroke-width:10;stroke-miterlimit:4;stroke-dasharray:none;stroke-opacity:1"
   id="path3340"
   cx="256"
   cy="256"
   r="256" /><g
   id="Layer_1_1_"
   transform="scale(5.12,5.12)">
	<g
   id="g5">
		<g
   id="g3351"><path
     style="fill:#ffffff;fill-opacity:1"
     sodipodi:nodetypes="cccccsccsccssscsccscsccssccccsccssscsssscc"
     inkscape:connector-curvature="0"
     id="path13"
     d="m 62.096322,33.808518 15.647854,0 0,3.79342 -15.647856,0 z m -9.768057,29.873178 c -0.758683,1.422533 -1.801874,2.56056 -3.034735,3.508914 -1.327697,0.948355 -2.750229,1.612204 -4.362433,1.991545 -1.612203,0.474177 -3.319242,0.663848 -5.026281,0.663848 l -18.872261,0 0,-38.692878 18.208414,0 c 1.89671,0 3.508914,0.189672 5.02628,0.474178 1.517368,0.284505 2.845064,0.853517 3.888255,1.612203 1.043191,0.758684 1.89671,1.707039 2.56056,2.939899 0.569013,1.232861 0.853518,2.75023 0.853518,4.552103 0,1.991547 -0.474177,3.603748 -1.327696,4.836611 -0.853519,1.327695 -2.181215,2.370888 -3.983092,3.224405 2.370887,0.663849 4.172762,1.89671 5.310788,3.60375 1.138027,1.707038 1.707038,3.793419 1.707038,6.164306 0.189672,1.991545 -0.189671,3.698584 -0.948355,5.121116 z m 31.580217,-5.974634 -20.199958,0 c 0,2.181215 0.758684,4.267597 1.896709,5.405623 1.138027,1.138025 2.845065,1.707038 4.931447,1.707038 1.517366,0 2.939899,-0.379343 3.983091,-1.138027 1.138027,-0.758682 1.801875,-1.612203 2.086382,-2.465721 l 6.733317,0 c -1.043188,3.414076 -2.75023,5.784964 -5.02628,7.207496 -2.181215,1.422532 -4.931446,2.181216 -8.15585,2.181216 -2.181217,0 -4.172763,-0.379342 -5.974636,-1.043189 -1.801874,-0.758684 -3.224407,-1.707039 -4.552103,-3.034737 -1.232862,-1.327697 -2.181217,-2.845065 -2.845065,-4.646939 -0.663848,-1.801874 -1.04319,-3.793419 -1.04319,-5.974635 0,-2.086381 0.379342,-4.077926 1.04319,-5.879801 0.663848,-1.801873 1.707039,-3.414077 2.9399,-4.646938 1.232861,-1.327696 2.750229,-2.370887 4.552103,-3.12957 1.801875,-0.758684 3.698584,-1.138026 5.879801,-1.138026 2.370887,0 4.457267,0.474177 6.259142,1.422532 1.801874,0.948355 3.224406,2.181215 4.36243,3.698583 1.138027,1.517369 1.991545,3.319242 2.465723,5.310788 0.663848,1.89671 0.853519,3.983091 0.663848,6.164307 z" /></g><g
   id="g3342"><path
     style="fill:#000000;fill-opacity:1"
     inkscape:connector-curvature="0"
     id="path7"
     d="M 40.241128,44.872902 C 41.013709,44.254837 41.4,43.32774 41.4,42.014351 c 0,-0.772581 -0.154516,-1.313388 -0.386291,-1.776937 -0.231774,-0.463548 -0.618065,-0.849839 -1.081614,-1.081613 -0.463548,-0.231775 -0.927097,-0.463549 -1.545162,-0.540807 -0.540807,-0.07726 -1.158872,-0.154517 -1.776937,-0.154517 l -6.489683,0 0,7.339523 7.03049,0 c 1.23613,-0.07726 2.240486,-0.386291 3.090325,-0.927098 z" /></g>
		<g
   id="g3345"><path
     style="fill:#000000;fill-opacity:1"
     inkscape:connector-curvature="0"
     id="path9"
     d="m 41.648428,55.22908 c -0.954051,-0.715538 -2.146615,-1.033555 -3.7367,-1.033555 l -7.791416,0 0,8.904475 7.632408,0 c 0.715538,0 1.351572,-0.0795 1.987606,-0.238513 0.636034,-0.159008 1.192564,-0.397521 1.669589,-0.715538 0.477026,-0.318017 0.874547,-0.715538 1.192564,-1.272068 C 42.920496,60.317351 43,59.601813 43,58.806771 43,57.137182 42.522975,55.944618 41.648428,55.22908 Z" /></g>
		<g
   id="g3348"><path
     style="fill:#000000;fill-opacity:1"
     inkscape:connector-curvature="0"
     id="path11"
     d="m 70.263628,46.540132 c -1.147275,0 -2.118045,0.176503 -2.82406,0.617763 -0.706015,0.353007 -1.323779,0.882519 -1.85329,1.41203 -0.441259,0.617763 -0.794267,1.147274 -0.97077,1.853289 C 64.439004,51.040977 64.350752,51.658741 64.2625,52.1 L 76,52.1 c -0.176504,-1.853289 -0.794267,-3.177068 -1.676786,-4.147838 -0.794267,-0.970771 -2.294549,-1.41203 -4.059586,-1.41203 z" /></g>
		
	</g>
</g><g
   id="Layer_2"
   transform="translate(0,412)">
</g>

</svg>