<?xml version="1.0" encoding="UTF-8" standalone="no"?>
<svg
   xmlns:sketch="http://www.bohemiancoding.com/sketch/ns"
   xmlns:dc="http://purl.org/dc/elements/1.1/"
   xmlns:cc="http://creativecommons.org/ns#"
   xmlns:rdf="http://www.w3.org/1999/02/22-rdf-syntax-ns#"
   xmlns:svg="http://www.w3.org/2000/svg"
   xmlns="http://www.w3.org/2000/svg"
   xmlns:sodipodi="http://sodipodi.sourceforge.net/DTD/sodipodi-0.dtd"
   xmlns:inkscape="http://www.inkscape.org/namespaces/inkscape"
   width="512"
   height="512"
   viewBox="0 0 512 512"
   version="1.1"
   id="svg2"
   inkscape:version="0.91 r13725"
   sodipodi:docname="github.svg">
  <metadata
     id="metadata17">
    <rdf:RDF>
      <cc:Work
         rdf:about="">
        <dc:format>image/svg+xml</dc:format>
        <dc:type
           rdf:resource="http://purl.org/dc/dcmitype/StillImage" />
        <dc:title>github</dc:title>
        <dc:creator>
          <cc:Agent>
            <dc:title>Thomas Boettcher</dc:title>
          </cc:Agent>
        </dc:creator>
        <dc:rights>
          <cc:Agent>
            <dc:title>https://creativecommons.org/licenses/by/4.0/</dc:title>
          </cc:Agent>
        </dc:rights>
        <dc:publisher>
          <cc:Agent>
            <dc:title>Thomas Boettcher</dc:title>
          </cc:Agent>
        </dc:publisher>
        <dc:identifier>ztatement</dc:identifier>
        <dc:relation>http://z-icon.com/</dc:relation>
      </cc:Work>
    </rdf:RDF>
  </metadata>
  <sodipodi:namedview
     pagecolor="#ffffff"
     bordercolor="#666666"
     borderopacity="1"
     objecttolerance="10"
     gridtolerance="10"
     guidetolerance="10"
     inkscape:pageopacity="0"
     inkscape:pageshadow="2"
     inkscape:window-width="1920"
     inkscape:window-height="1027"
     id="namedview15"
     showgrid="false"
     inkscape:showpageshadow="false"
     borderlayer="true"
     inkscape:zoom="1"
     inkscape:cx="204.8817"
     inkscape:cy="229.74576"
     inkscape:window-x="-8"
     inkscape:window-y="-8"
     inkscape:window-maximized="1"
     inkscape:current-layer="svg2" />
  <title
     id="title4">github</title>
  <description>Created with Sketch (http://www.bohemiancoding.com/sketch)</description>
  <defs
     id="defs6" />
  <g
     id="Page-1"
     sketch:type="MSPage"
     style="fill:none;fill-rule:evenodd;stroke:none;stroke-width:1"
     transform="matrix(8.6630368,0,0,8.5333333,-2.9183261,0)">
    <g
       id="Github"
       sketch:type="MSArtboardGroup">
      <g
         id="Github-"
         sketch:type="MSLayerGroup">
        <path
           d="m 0.33687103,30 c 0,-16.568543 13.23035997,-30 29.55083897,-30 16.320478,0 29.550838,13.431457 29.550838,30 0,16.568543 -13.23036,30 -29.550838,30 C 13.567231,60 0.33687103,46.568543 0.33687103,30 Z m 0,0"
           id="path11"
           sketch:type="MSShapeGroup"
           inkscape:connector-curvature="0"
           style="fill:#000000;fill-opacity:1.0" />
        <path
           d="m 16.726954,31.750669 c 1.617803,2.870671 4.737852,4.656698 10.000156,5.150705 -0.751124,0.556981 -1.653359,1.614482 -1.777805,2.837015 -0.94446,0.597152 -2.843378,0.793669 -4.320068,0.338748 -2.068921,-0.63841 -2.861154,-4.641499 -5.95898,-4.071491 -0.671123,0.123774 -0.537788,0.555894 0.04222,0.922871 0.944459,0.597153 1.83336,1.344134 2.518927,2.934732 0.526674,1.221446 1.633358,3.403764 5.133414,3.403764 1.38891,0 2.362257,-0.16286 2.362257,-0.16286 0,0 0.02667,3.117135 0.02667,4.328811 0,1.397334 -1.93003,1.791455 -1.93003,2.463522 0,0.266005 0.638899,0.290976 1.15224,0.290976 1.01446,0 3.125604,-0.827327 3.125604,-2.280035 0,-1.154131 0.01888,-5.034533 0.01888,-5.713115 0,-1.484194 0.814456,-1.954315 0.814456,-1.954315 0,0 0.101124,7.922578 -0.194447,8.984422 -0.346672,1.24859 -0.972236,1.071616 -0.972236,1.628597 0,0.828413 2.54115,0.203031 3.383384,-1.615567 0.651121,-1.415794 0.366675,-9.187455 0.366675,-9.187455 l 0.694454,-0.01411 c 0,0 0.0389,3.55794 0.01556,5.184365 -0.02444,1.68397 -0.141113,3.814173 0.882235,4.818475 0.672235,0.660124 2.852268,1.818598 2.852268,0.760011 0,-0.61561 -1.194463,-1.12156 -1.194463,-2.787072 l 0,-7.663088 c 0.953348,0 0.810013,2.519983 0.810013,2.519983 l 0.07,4.68167 c 0,0 -0.210002,1.705684 1.887809,2.420095 0.740011,0.252975 2.324479,0.321375 2.398925,-0.103133 0.07444,-0.425606 -1.907807,-1.058586 -1.925585,-2.379921 -0.01106,-0.805615 0.03667,-1.275734 0.03667,-4.777217 0,-3.501481 -0.481119,-4.795674 -2.157811,-5.827117 5.174525,-0.520065 8.376797,-1.770936 9.937932,-5.121392 0.121899,0.0039 0.635506,-1.565079 0.568897,-1.564538 0.350005,-1.264876 0.538896,-2.761014 0.576675,-4.532926 -0.0089,-4.804359 -2.362259,-6.503528 -2.814487,-7.30154 0.666677,-3.637199 -0.111115,-5.292938 -0.47223,-5.860775 -1.333354,-0.463608 -4.638962,1.192132 -6.444545,2.359293 -2.94449,-0.841442 -9.166809,-0.760012 -11.500178,0.217147 -4.305623,-3.012904 -6.583435,-2.551467 -6.583435,-2.551467 0,0 -1.472245,2.57861 -0.388894,6.351525 -1.41669,1.764311 -2.472262,3.012902 -2.472262,6.32221 0,1.8642 0.224448,3.532968 0.731123,4.990018 -0.06212,-1.49e-4 0.679532,1.560676 0.70001,1.560196 z m 0,0"
           id="Path"
           sketch:type="MSShapeGroup"
           inkscape:connector-curvature="0"
           style="fill:#ffffff" />
      </g>
    </g>
  </g>
</svg>
