<svg xmlns="http://www.w3.org/2000/svg" width="512" height="512"><metadata>image/svg+xmlgithubThomas Boettcherhttps://creativecommons.org/licenses/by/4.0/Thomas Boettcherztatementhttp://z-icon.com/</metadata><title>github</title><title>background</title><rect fill="none" height="402" width="582" y="-1" x="-1"/><title>Layer 1</title><g fill="none" fill-rule="evenodd" transform="matrix(8.6630368,0,0,8.5333333,-2.9183261,0) "><path fill="#000000" d="m0.3 30c0-16.6 13.2-30 29.6-30 16.3 0 29.6 13.4 29.6 30 0 16.6-13.2 30-29.6 30 -16.3 0-29.6-13.4-29.6-30zm0 0M16.7 31.8c1.6 2.9 4.7 4.7 10 5.2 -0.8 0.6-1.7 1.6-1.8 2.8 -0.9 0.6-2.8 0.8-4.3 0.3 -2.1-0.6-2.9-4.6-6-4.1 -0.7 0.1-0.5 0.6 0 0.9 0.9 0.6 1.8 1.3 2.5 2.9 0.5 1.2 1.6 3.4 5.1 3.4 1.4 0 2.4-0.2 2.4-0.2 0 0 0 3.1 0 4.3 0 1.4-1.9 1.8-1.9 2.5 0 0.3 0.6 0.3 1.2 0.3 1 0 3.1-0.8 3.1-2.3 0-1.2 0-5 0-5.7 0-1.5 0.8-2 0.8-2 0 0 0.1 7.9-0.2 9 -0.3 1.2-1 1.1-1 1.6 0 0.8 2.5 0.2 3.4-1.6 0.7-1.4 0.4-9.2 0.4-9.2l0.7 0c0 0 0 3.6 0 5.2 0 1.7-0.1 3.8 0.9 4.8 0.7 0.7 2.9 1.8 2.9 0.8 0-0.6-1.2-1.1-1.2-2.8l0-7.7c1 0 0.8 2.5 0.8 2.5l0.1 4.7c0 0-0.2 1.7 1.9 2.4 0.7 0.3 2.3 0.3 2.4-0.1 0.1-0.4-1.9-1.1-1.9-2.4 0-0.8 0-1.3 0-4.8 0-3.5-0.5-4.8-2.2-5.8 5.2-0.5 8.4-1.8 9.9-5.1 0.1 0 0.6-1.6 0.6-1.6 0.4-1.3 0.5-2.8 0.6-4.5 0-4.8-2.4-6.5-2.8-7.3 0.7-3.6-0.1-5.3-0.5-5.9 -1.3-0.5-4.6 1.2-6.4 2.4 -2.9-0.8-9.2-0.8-11.5 0.2 -4.3-3-6.6-2.6-6.6-2.6 0 0-1.5 2.6-0.4 6.4 -1.4 1.8-2.5 3-2.5 6.3 0 1.9 0.2 3.5 0.7 5 -0.1 0 0.7 1.6 0.7 1.6l0 0zm0 0"/></g></svg>