<svg xmlns="http://www.w3.org/2000/svg" width="512" height="512" class="custom-icon"><style>.s0{fill-opacity:1;fill:#000;}</style><title>mail</title><path d="m512 256a256 256 0 0 1-256 256 256 256 0 0 1-256-256 256 256 0 0 1 256-256 256 256 0 0 1 256 256zM353.3 110.4l-193.2 0c-26.6 0-48.3 21.7-48.3 48.3l0 193.2c0 26.6 21.7 48.3 48.3 48.3l193.2 0c26.6 0 48.3-21.7 48.3-48.3l0-193.2c0-26.6-21.7-48.3-48.3-48.3zM183.8 182.9l145.5 0c2.6 0 5.1 0.6 7.4 1.6l-80.2 93.1-80.1-93.2c2.3-1 4.8-1.6 7.4-1.6l0 0.1zm-18.2 126.8l0-108.7c0-0.4 0-0.8 0-1.1l53.3 62-52.7 52.5c-0.4-1.5-0.6-3.1-0.6-4.7zm163.7 18.1l-145.5 0c-1.6 0-3.2-0.2-4.7-0.6l51.8-51.5 25.7 29.9 25.7-29.9 51.8 51.5c-1.5 0.4-3.1 0.6-4.7 0.6l-0.1 0zm18.2-18.1c0 1.6-0.2 3.2-0.6 4.7l-52.7-52.5 53.3-62c0 0.4 0 0.8 0 1.1l0 108.7z"/></svg>