<?xml version="1.0" encoding="UTF-8" standalone="no"?>
<!-- Generator: Adobe Illustrator 21.0.0, SVG Export Plug-In . SVG Version: 6.00 Build 0)  -->

<svg
   xmlns:dc="http://purl.org/dc/elements/1.1/"
   xmlns:cc="http://creativecommons.org/ns#"
   xmlns:rdf="http://www.w3.org/1999/02/22-rdf-syntax-ns#"
   xmlns:svg="http://www.w3.org/2000/svg"
   xmlns="http://www.w3.org/2000/svg"
   xmlns:sodipodi="http://sodipodi.sourceforge.net/DTD/sodipodi-0.dtd"
   xmlns:inkscape="http://www.inkscape.org/namespaces/inkscape"
   version="1.1"
   id="Layer_1"
   x="0px"
   y="0px"
   viewBox="0 0 512 512.00001"
   xml:space="preserve"
   inkscape:version="0.91 r13725"
   sodipodi:docname="share.svg"
   width="512"
   height="512"><title
   id="title3337">share</title><metadata
   id="metadata9"><rdf:RDF><cc:Work
       rdf:about=""><dc:format>image/svg+xml</dc:format><dc:type
         rdf:resource="http://purl.org/dc/dcmitype/StillImage" /><dc:title>share</dc:title><dc:creator><cc:Agent><dc:title>Thomas Boettcher</dc:title></cc:Agent></dc:creator><dc:rights><cc:Agent><dc:title>https://creativecommons.org/licenses/by/4.0/</dc:title></cc:Agent></dc:rights><dc:publisher><cc:Agent><dc:title>Thomas Boettcher</dc:title></cc:Agent></dc:publisher><dc:identifier>ztatement</dc:identifier><dc:relation>http://z-icon.com/</dc:relation></cc:Work></rdf:RDF></metadata><defs
   id="defs7" /><sodipodi:namedview
   pagecolor="#ffffff"
   bordercolor="#666666"
   borderopacity="1"
   objecttolerance="10"
   gridtolerance="10"
   guidetolerance="10"
   inkscape:pageopacity="0"
   inkscape:pageshadow="2"
   inkscape:window-width="1920"
   inkscape:window-height="1027"
   id="namedview5"
   showgrid="false"
   borderlayer="true"
   inkscape:showpageshadow="false"
   inkscape:zoom="1"
   inkscape:cx="273.3722"
   inkscape:cy="209.57627"
   inkscape:window-x="-8"
   inkscape:window-y="-8"
   inkscape:window-maximized="1"
   inkscape:current-layer="Layer_1" />
<circle
   style="opacity:1;fill:#000000;fill-opacity:1;fill-rule:nonzero;stroke:none;stroke-width:10;stroke-miterlimit:4;stroke-dasharray:none;stroke-opacity:1"
   id="path3339"
   cx="256"
   cy="256"
   r="256" /><path
   d="m 283.78896,364.03652 c -36.46131,-20.23572 -76.67599,-36.64306 -113.67349,-56.33187 -34.85273,24.0641 -80.429358,6.56292 -92.225664,-26.25172 -15.013482,-41.56528 15.549674,-90.24039 69.705444,-80.9429 9.11533,1.64075 15.54969,6.56294 24.12879,11.48516 36.99752,-18.595 73.45882,-37.7369 112.06492,-54.69114 0,-39.92452 32.70795,-72.739202 77.74839,-60.707155 62.19871,16.407335 53.08338,120.320475 -21.44782,117.038995 -16.08588,-0.5469 -23.59262,-5.46909 -36.99752,-15.86042 -36.4613,18.04808 -73.45882,36.09616 -109.38393,54.69113 -5.36196,18.04809 12.3325,22.97028 24.1288,28.98633 25.73741,13.12585 59.51772,26.79862 80.96558,40.47141 11.79629,-4.9222 18.76684,-12.03204 30.02694,-14.21969 38.6061,-8.75058 73.99502,18.04807 75.0674,56.33187 2.14479,79.30212 -123.32501,80.39595 -120.10784,0 z"
   id="path3"
   inkscape:connector-curvature="0"
   sodipodi:nodetypes="ccccccccccscccc"
   style="fill:#ffffff;fill-opacity:1" />
</svg>