<svg xmlns:svg="http://www.w3.org/2000/svg" xmlns="http://www.w3.org/2000/svg" version="1.1" x="0" y="0" viewBox="0 0 512 512" xml:space="preserve" width="512" height="512"><title>share</title><circle cx="256" cy="256" r="256" fill="#000"/><path d="m283.8 364c-36.5-20.2-76.7-36.6-113.7-56.3-34.9 24.1-80.4 6.6-92.2-26.3-15-41.6 15.5-90.2 69.7-80.9 9.1 1.6 15.5 6.6 24.1 11.5 37-18.6 73.5-37.7 112.1-54.7 0-39.9 32.7-72.7 77.7-60.7 62.2 16.4 53.1 120.3-21.4 117-16.1-0.5-23.6-5.5-37-15.9-36.5 18-73.5 36.1-109.4 54.7-5.4 18 12.3 23 24.1 29 25.7 13.1 59.5 26.8 81 40.5 11.8-4.9 18.8-12 30-14.2 38.6-8.8 74 18 75.1 56.3 2.1 79.3-123.3 80.4-120.1 0z" fill="#fff"/></svg>