<?xml version="1.0" encoding="UTF-8" standalone="no"?>
<svg
   xmlns:sketch="http://www.bohemiancoding.com/sketch/ns"
   xmlns:dc="http://purl.org/dc/elements/1.1/"
   xmlns:cc="http://creativecommons.org/ns#"
   xmlns:rdf="http://www.w3.org/1999/02/22-rdf-syntax-ns#"
   xmlns:svg="http://www.w3.org/2000/svg"
   xmlns="http://www.w3.org/2000/svg"
   xmlns:sodipodi="http://sodipodi.sourceforge.net/DTD/sodipodi-0.dtd"
   xmlns:inkscape="http://www.inkscape.org/namespaces/inkscape"
   width="512"
   height="512"
   viewBox="0 0 512 512"
   version="1.1"
   id="svg2"
   inkscape:version="0.91 r13725"
   sodipodi:docname="yahoo.svg">
  <metadata
     id="metadata18">
    <rdf:RDF>
      <cc:Work
         rdf:about="">
        <dc:format>image/svg+xml</dc:format>
        <dc:type
           rdf:resource="http://purl.org/dc/dcmitype/StillImage" />
        <dc:title>yahoo!</dc:title>
        <dc:creator>
          <cc:Agent>
            <dc:title>Thomas Boettcher</dc:title>
          </cc:Agent>
        </dc:creator>
        <dc:rights>
          <cc:Agent>
            <dc:title>https://creativecommons.org/licenses/by/4.0/</dc:title>
          </cc:Agent>
        </dc:rights>
        <dc:publisher>
          <cc:Agent>
            <dc:title>Thomas Boettcher</dc:title>
          </cc:Agent>
        </dc:publisher>
        <dc:identifier>ztatement</dc:identifier>
        <dc:relation>http://z-icon.com/</dc:relation>
      </cc:Work>
    </rdf:RDF>
  </metadata>
  <sodipodi:namedview
     pagecolor="#ffffff"
     bordercolor="#666666"
     borderopacity="1"
     objecttolerance="10"
     gridtolerance="10"
     guidetolerance="10"
     inkscape:pageopacity="0"
     inkscape:pageshadow="2"
     inkscape:window-width="1920"
     inkscape:window-height="1027"
     id="namedview16"
     showgrid="false"
     borderlayer="true"
     inkscape:showpageshadow="false"
     inkscape:zoom="1"
     inkscape:cx="225.86751"
     inkscape:cy="269.74576"
     inkscape:window-x="-8"
     inkscape:window-y="-8"
     inkscape:window-maximized="1"
     inkscape:current-layer="svg2" />
  <title
     id="title4">yahoo!</title>
  <description>Created with Sketch (http://www.bohemiancoding.com/sketch)</description>
  <defs
     id="defs6" />
  <g
     id="Page-1"
     sketch:type="MSPage"
     style="fill:none;fill-rule:evenodd;stroke:none;stroke-width:1"
     transform="matrix(8.8050537,0,0,8.5333333,-7.782203,0)">
    <g
       id="Yahoo!"
       sketch:type="MSArtboardGroup">
      <g
         sketch:type="MSLayerGroup"
         id="g10">
        <path
           d="m 0.88383368,30 c 0,-16.568543 13.01696732,-30 29.07421232,-30 16.057245,0 29.074212,13.431457 29.074212,30 0,16.568543 -13.016967,30 -29.074212,30 C 13.900801,60 0.88383368,46.568543 0.88383368,30 Z m 0,0"
           sketch:type="MSShapeGroup"
           id="path12"
           inkscape:connector-curvature="0"
           style="fill:#000000;fill-opacity:1.0" />
        <path
           style="fill:#ffffff"
           d="M 111.80078 162.33789 L 111.80078 181.4082 L 151.28906 181.4082 C 166.6084 193.91426 225.23614 270.63021 227.66797 278.26367 C 228.64082 285.41409 229.54004 327.69594 226.66992 330.87695 C 220.90693 337.26403 194.62118 335.58397 188.27344 336.06641 L 186.08594 349.15625 C 197.65977 349.51354 235.35078 348.16992 247.07227 348.16992 C 270.14815 348.16992 310.58623 348.07131 316.30078 348.5293 L 317.00586 334.78906 C 311.16875 333.77107 279.34091 334.66327 274.93945 333.64648 C 273.96661 326.9785 272.89513 282.52856 273.86914 277.94727 C 278.27002 264.66564 345.16495 210.47058 352.48438 208.41016 C 354.13654 208.05355 356.59267 207.36106 359.38867 206.73633 L 380.93359 206.73633 L 393.35938 187.66211 L 276.56836 187.66211 L 281.06641 206.73242 L 312.94336 206.73242 L 259.30469 257.42773 C 248.36114 241.60142 222.70704 208.60959 204.81055 181.4082 L 244.76367 181.4082 L 244.76367 162.33789 L 111.80078 162.33789 z M 371.37695 226.75195 L 371.86328 313.5957 L 389.76172 315.09766 L 410.59961 230.84766 C 407.12314 230.72187 375.48779 227.59162 371.37695 226.75195 z M 368.77539 327.10547 L 368.87305 347.66602 L 377.94336 348.48047 L 387.71875 349.24414 L 390.58789 329.11523 L 380.27734 328.58203 L 368.77539 327.10547 z "
           transform="matrix(0.11357114,0,0,0.1171875,0.88383368,0)"
           id="Shape" />
      </g>
    </g>
  </g>
</svg>
