<svg xmlns="http://www.w3.org/2000/svg" width="512" height="512"><metadata>image/svg+xmlyahoo!Thomas Boettcherhttps://creativecommons.org/licenses/by/4.0/Thomas Boettcherztatementhttp://z-icon.com/</metadata><title>yahoo!</title><title>background</title><rect fill="none" height="402" width="582" y="-1" x="-1"/><title>Layer 1</title><g fill="none" fill-rule="evenodd" transform="matrix(8.8050537,0,0,8.5333333,-7.782203,0) "><path fill="#000000" d="m0.9 30c0-16.6 13-30 29.1-30 16.1 0 29.1 13.4 29.1 30 0 16.6-13 30-29.1 30 -16.1 0-29.1-13.4-29.1-30zm0 0M13.6 19l0 2.2 4.5 0c1.7 1.5 8.4 10.5 8.7 11.4 0.1 0.8 0.2 5.8-0.1 6.2 -0.7 0.7-3.6 0.6-4.4 0.6l-0.2 1.5c1.3 0 5.6-0.1 6.9-0.1 2.6 0 7.2 0 7.9 0l0.1-1.6c-0.7-0.1-4.3 0-4.8-0.1 -0.1-0.8-0.2-6-0.1-6.5 0.5-1.6 8.1-7.9 8.9-8.1 0.2 0 0.5-0.1 0.8-0.2l2.4 0 1.4-2.2 -13.3 0 0.5 2.2 3.6 0 -6.1 5.9c-1.2-1.9-4.2-5.7-6.2-8.9l4.5 0 0-2.2 -15.1 0zm29.5 7.5l0.1 10.2 2 0.2 2.4-9.9c-0.4 0-4-0.4-4.5-0.5zm-0.3 11.8l0 2.4 1 0.1 1.1 0.1 0.3-2.4 -1.2-0.1 -1.3-0.2z"/></g></svg>