<svg xmlns="http://www.w3.org/2000/svg" width="512" height="512" class="custom-icon"><title>yelp</title><metadata>image/svg+xmlyelpThomas Boettcherhttps://creativecommons.org/licenses/by/4.0/Thomas Boettcherztatementhttp://z-icon.com/</metadata><title>background</title><rect fill="none" height="402" width="582" y="-1" x="-1"/><title>Layer 1</title><circle fill="#000000" r="256" cy="256" cx="256" class="outer-shape"/><path fill="#ffffff" d="m241.2 280.1c0.2-7.5-9.1-12.1-9.1-12.1l-61.3-31c0 0-9.1-3.8-13.5-1.1 -3.4 2-6.4 5.6-6.7 8.8l-4 49.2c0 0-0.6 8.5 1.6 12.4 3.1 5.5 13.4 1.7 13.4 1.7l71.6-15.8c2.8-1.9 7.7-2 7.9-12zm0.8-43.8c0 0 5.9 6.1 13.3 4.2 8.1-2 9.4-13.8 9.4-13.8l-0.5-97.9c0 0-1.2-12.1-6.6-15.3 -8.5-5.2-11-2.5-13.5-2.1l-57 21.2c0 0-5.6 1.8-8.5 6.5 -4.2 6.6 4.2 16.3 4.2 16.3l59.3 80.9zm59 32.3l68.7-20.1c0 0 9.4-3.8 10.7-8.9 1.3-5.1-1.5-11.2-1.5-11.2l-32.8-38.7c0 0-2.8-4.9-8.8-5.4 -6.5-0.6-10.5 7.3-10.5 7.3l-38.8 61.1c0 0-3.4 6.1-0.2 11.6 3.5 6 13.2 4.2 13.2 4.2zm-42 38.1c-6.1-3.2-13.5 3.4-13.5 3.4l-47.9 52.8c0 0-6 8.1-4.5 13 1.4 4.6 3.8 7 7.2 8.6l48.1 15.2c0 0 5.8 1.2 10.3-0.1 6.3-1.8 5.1-11.7 5.1-11.7l1.1-71.5c0 0-0.2-6.9-5.9-9.8l0 0zm112.3 8l-68.9-22.1c0 0-6.7-1.8-11.2 2.8 -4.9 4.9-0.8 13.9-0.8 13.9l36.8 61.5c0 0 6 8.1 11.3 8.1 5.3 0 10.5-4.3 10.5-4.3l29.1-41.6c0 0 2.9-5.3 3-9.8 0.1-6.5-9.7-8.3-9.7-8.3z" class="inner-shape"/></svg>