<?xml version="1.0" encoding="UTF-8" standalone="no"?>
<!-- Generate more at icons.mysitemyway.com -->

<svg
   xmlns:dc="http://purl.org/dc/elements/1.1/"
   xmlns:cc="http://creativecommons.org/ns#"
   xmlns:rdf="http://www.w3.org/1999/02/22-rdf-syntax-ns#"
   xmlns:svg="http://www.w3.org/2000/svg"
   xmlns="http://www.w3.org/2000/svg"
   xmlns:sodipodi="http://sodipodi.sourceforge.net/DTD/sodipodi-0.dtd"
   xmlns:inkscape="http://www.inkscape.org/namespaces/inkscape"
   id="yelp-icon"
   class="custom-icon"
   version="1.1"
   viewBox="0 0 512 512"
   inkscape:version="0.91 r13725"
   sodipodi:docname="yelp.svg"
   width="512"
   height="512">
  <title
     id="title3339">yelp</title>
  <metadata
     id="metadata11">
    <rdf:RDF>
      <cc:Work
         rdf:about="">
        <dc:format>image/svg+xml</dc:format>
        <dc:type
           rdf:resource="http://purl.org/dc/dcmitype/StillImage" />
        <dc:title>yelp</dc:title>
        <dc:creator>
          <cc:Agent>
            <dc:title>Thomas Boettcher</dc:title>
          </cc:Agent>
        </dc:creator>
        <dc:rights>
          <cc:Agent>
            <dc:title>https://creativecommons.org/licenses/by/4.0/</dc:title>
          </cc:Agent>
        </dc:rights>
        <dc:publisher>
          <cc:Agent>
            <dc:title>Thomas Boettcher</dc:title>
          </cc:Agent>
        </dc:publisher>
        <dc:identifier>ztatement</dc:identifier>
        <dc:relation>http://z-icon.com/</dc:relation>
      </cc:Work>
    </rdf:RDF>
  </metadata>
  <defs
     id="defs9" />
  <sodipodi:namedview
     pagecolor="#ffffff"
     bordercolor="#666666"
     borderopacity="1"
     objecttolerance="10"
     gridtolerance="10"
     guidetolerance="10"
     inkscape:pageopacity="0"
     inkscape:pageshadow="2"
     inkscape:window-width="1920"
     inkscape:window-height="1027"
     id="namedview7"
     showgrid="false"
     inkscape:showpageshadow="false"
     borderlayer="true"
     inkscape:zoom="1"
     inkscape:cx="244.1869"
     inkscape:cy="209.57627"
     inkscape:window-x="-8"
     inkscape:window-y="-8"
     inkscape:window-maximized="1"
     inkscape:current-layer="yelp-icon" />
  <circle
     style="opacity:1;fill:#000000;fill-opacity:1.0"
     class="outer-shape"
     cx="256"
     cy="256"
     id="circle3"
     r="256" />
  <path
     class="inner-shape"
     style="opacity:1;fill:#ffffff"
     d="m 241.17783,280.13149 c 0.20576,-7.54946 -9.05644,-12.08783 -9.05644,-12.08783 l -61.31725,-30.9948 c 0,0 -9.08832,-3.75009 -13.49918,-1.13603 -3.37914,1.99676 -6.37284,5.61354 -6.66554,8.8101 l -3.99354,49.19174 c 0,0 -0.597,8.52321 1.60843,12.40082 3.127,5.49763 13.41223,1.67219 13.41223,1.67219 l 71.58219,-15.83212 c 2.78214,-1.86926 7.65958,-2.04025 7.9291,-12.02407 z m 0.78248,-43.82742 c 0,0 5.85409,6.05404 13.30502,4.21378 8.09139,-1.99387 9.37523,-13.75712 9.37523,-13.75712 l -0.54774,-97.8821 c 0,0 -1.22008,-12.07335 -6.64236,-15.34815 -8.50581,-5.16145 -11.02713,-2.46916 -13.4615,-2.1069 l -57.0455,21.21094 c 0,0 -5.58746,1.84896 -8.49713,6.51484 -4.15292,6.60758 4.22249,16.28422 4.22249,16.28422 l 59.29149,80.87049 z m 59.01038,32.28442 68.7073,-20.09517 c 0,0 9.36365,-3.81096 10.70255,-8.89126 1.30993,-5.0803 -1.54466,-11.21261 -1.54466,-11.21261 L 346.00081,189.6887 c 0,0 -2.8459,-4.89193 -8.75215,-5.3846 -6.50905,-0.55354 -10.51707,7.32921 -10.51707,7.32921 l -38.82247,61.12886 c 0,0 -3.43131,6.09173 -0.17968,11.58936 3.52115,5.9758 13.24125,4.23696 13.24125,4.23696 z m -41.99294,38.08926 c -6.14391,-3.15888 -13.49629,3.37915 -13.49629,3.37915 l -47.93108,52.80272 c 0,0 -5.97871,8.07111 -4.46012,13.03259 1.43164,4.6485 3.80515,6.95536 7.16111,8.58117 l 48.13395,15.20614 c 0,0 5.8367,1.2143 10.25624,-0.0666 6.27432,-1.81998 5.11799,-11.65021 5.11799,-11.65021 l 1.08678,-71.48945 c 0,0 -0.24634,-6.8858 -5.86858,-9.79546 z m 112.34345,8.04213 -68.8638,-22.13252 c 0,0 -6.74669,-1.7881 -11.2387,2.75027 -4.88903,4.92961 -0.75639,13.90201 -0.75639,13.90201 l 36.79093,61.47664 c 0,0 6.04246,8.10298 11.27636,8.10298 5.25709,0 10.45042,-4.32101 10.45042,-4.32101 l 29.08497,-41.60171 c 0,0 2.93284,-5.25129 2.99949,-9.84473 0.10433,-6.54093 -9.74328,-8.33193 -9.74328,-8.33193 z"
     id="path5"
     inkscape:connector-curvature="0" />
</svg>
