<?xml version="1.0" encoding="UTF-8" standalone="no"?>
<!-- Generate more at icons.mysitemyway.com -->

<svg
   xmlns:dc="http://purl.org/dc/elements/1.1/"
   xmlns:cc="http://creativecommons.org/ns#"
   xmlns:rdf="http://www.w3.org/1999/02/22-rdf-syntax-ns#"
   xmlns:svg="http://www.w3.org/2000/svg"
   xmlns="http://www.w3.org/2000/svg"
   xmlns:sodipodi="http://sodipodi.sourceforge.net/DTD/sodipodi-0.dtd"
   xmlns:inkscape="http://www.inkscape.org/namespaces/inkscape"
   id="delicious-icon"
   class="custom-icon"
   version="1.1"
   viewBox="0 0 512 512"
   inkscape:version="0.91 r13725"
   sodipodi:docname="delicious.svg"
   width="512"
   height="512">
  <title
     id="title3339">delicious</title>
  <metadata
     id="metadata11">
    <rdf:RDF>
      <cc:Work
         rdf:about="">
        <dc:format>image/svg+xml</dc:format>
        <dc:type
           rdf:resource="http://purl.org/dc/dcmitype/StillImage" />
        <dc:title>delicious</dc:title>
        <dc:creator>
          <cc:Agent>
            <dc:title>Thomas Boettcher</dc:title>
          </cc:Agent>
        </dc:creator>
        <dc:rights>
          <cc:Agent>
            <dc:title>https://creativecommons.org/licenses/by/4.0/</dc:title>
          </cc:Agent>
        </dc:rights>
        <dc:publisher>
          <cc:Agent>
            <dc:title>Thomas Boettcher</dc:title>
          </cc:Agent>
        </dc:publisher>
        <dc:identifier>ztatement</dc:identifier>
        <dc:relation>http://z-icon.com/</dc:relation>
      </cc:Work>
    </rdf:RDF>
  </metadata>
  <defs
     id="defs9" />
  <sodipodi:namedview
     pagecolor="#ffffff"
     bordercolor="#666666"
     borderopacity="1"
     objecttolerance="10"
     gridtolerance="10"
     guidetolerance="10"
     inkscape:pageopacity="0"
     inkscape:pageshadow="2"
     inkscape:window-width="1920"
     inkscape:window-height="1027"
     id="namedview7"
     showgrid="false"
     borderlayer="true"
     inkscape:showpageshadow="false"
     inkscape:zoom="1"
     inkscape:cx="248.35623"
     inkscape:cy="209.57627"
     inkscape:window-x="-8"
     inkscape:window-y="-8"
     inkscape:window-maximized="1"
     inkscape:current-layer="delicious-icon" />
  <circle
     style="opacity:1;fill:#000000;fill-opacity:1.0"
     class="outer-shape"
     cx="256"
     cy="256"
     id="circle3"
     r="256" />
  <path
     class="inner-shape"
     style="opacity:1;fill:#ffffff"
     d="m 353.31112,110.4 -193.20484,0 C 133.53768,110.4 111.8,132.14079 111.8,158.70676 l 0,193.18937 c 0,26.58337 21.73768,48.30387 48.30628,48.30387 l 193.20484,0 C 379.87681,400.2 401.6,378.4795 401.6,351.89613 l 0,-193.18937 C 401.6,132.13789 379.87971,110.4 353.31112,110.4 Z m 30.17657,241.49613 c 0,8.01877 -3.153,15.58835 -8.87649,21.3148 -5.72349,5.72355 -13.2872,8.87658 -21.29719,8.87658 l -96.60966,0 0,-126.78751 -126.78623,0 0,-96.59324 c 0,-8.01007 3.15589,-15.57965 8.88517,-21.309 5.72929,-5.72934 13.2959,-8.88527 21.30879,-8.88527 l 96.59227,0 0,126.78751 126.78623,0 0,96.59613 z"
     id="path5"
     inkscape:connector-curvature="0" />
</svg>
