<?xml version="1.0" encoding="UTF-8" standalone="no"?>
<svg
   xmlns:sketch="http://www.bohemiancoding.com/sketch/ns"
   xmlns:dc="http://purl.org/dc/elements/1.1/"
   xmlns:cc="http://creativecommons.org/ns#"
   xmlns:rdf="http://www.w3.org/1999/02/22-rdf-syntax-ns#"
   xmlns:svg="http://www.w3.org/2000/svg"
   xmlns="http://www.w3.org/2000/svg"
   xmlns:sodipodi="http://sodipodi.sourceforge.net/DTD/sodipodi-0.dtd"
   xmlns:inkscape="http://www.inkscape.org/namespaces/inkscape"
   width="512"
   height="512"
   viewBox="0 0 512 512"
   version="1.1"
   id="svg2"
   inkscape:version="0.91 r13725"
   sodipodi:docname="dribbble.svg">
  <metadata
     id="metadata18">
    <rdf:RDF>
      <cc:Work
         rdf:about="">
        <dc:format>image/svg+xml</dc:format>
        <dc:type
           rdf:resource="http://purl.org/dc/dcmitype/StillImage" />
        <dc:title>dribbble</dc:title>
        <dc:creator>
          <cc:Agent>
            <dc:title>Thomas Boettcher</dc:title>
          </cc:Agent>
        </dc:creator>
        <dc:rights>
          <cc:Agent>
            <dc:title>https://creativecommons.org/licenses/by/4.0/</dc:title>
          </cc:Agent>
        </dc:rights>
        <dc:publisher>
          <cc:Agent>
            <dc:title>Thomas Boettcher</dc:title>
          </cc:Agent>
        </dc:publisher>
        <dc:identifier>ztatement</dc:identifier>
        <dc:relation>http://z-icon.com/</dc:relation>
      </cc:Work>
    </rdf:RDF>
  </metadata>
  <sodipodi:namedview
     pagecolor="#ffffff"
     bordercolor="#666666"
     borderopacity="1"
     objecttolerance="10"
     gridtolerance="10"
     guidetolerance="10"
     inkscape:pageopacity="0"
     inkscape:pageshadow="2"
     inkscape:window-width="1920"
     inkscape:window-height="1027"
     id="namedview16"
     showgrid="false"
     borderlayer="true"
     inkscape:showpageshadow="false"
     inkscape:zoom="1"
     inkscape:cx="281.82965"
     inkscape:cy="229.74576"
     inkscape:window-x="-8"
     inkscape:window-y="-8"
     inkscape:window-maximized="1"
     inkscape:current-layer="svg2" />
  <title
     id="title4">dribbble</title>
  <description>Created with Sketch (http://www.bohemiancoding.com/sketch)</description>
  <defs
     id="defs6" />
  <g
     id="Page-1"
     sketch:type="MSPage"
     style="fill:none;fill-rule:evenodd;stroke:none;stroke-width:1"
     transform="matrix(8.6630367,0,0,8.5333333,-1.9455508,0)">
    <g
       id="Dribbble"
       sketch:type="MSArtboardGroup">
      <g
         sketch:type="MSLayerGroup"
         id="g10">
        <path
           d="m 0.22458069,30 c 0,-16.568543 13.23036031,-30 29.55083831,-30 16.320479,0 29.550839,13.431457 29.550839,30 0,16.568543 -13.23036,30 -29.550839,30 C 13.454941,60 0.22458069,46.568543 0.22458069,30 Z m 0,0"
           sketch:type="MSShapeGroup"
           id="path12"
           inkscape:connector-curvature="0"
           style="fill:#000000;fill-opacity:1.0" />
        <path
           d="m 51.468044,30.000043 c 0,1.491396 -0.149352,2.980725 -0.442706,4.432472 -0.286052,1.417271 -0.709739,2.808685 -1.264777,4.138814 -0.542301,1.306599 -1.214936,2.565706 -2.000921,3.739913 -0.774268,1.166794 -1.666217,2.261444 -2.646045,3.2593 -0.981952,0.993546 -2.062395,1.897797 -3.209575,2.688272 -1.158813,0.793493 -2.399135,1.476313 -3.685139,2.030189 -1.310287,0.561289 -2.682132,0.991391 -4.075033,1.281689 -1.42992,0.299004 -2.900257,0.451652 -4.369405,0.451652 -1.470252,0 -2.940503,-0.152648 -4.368387,-0.451652 -1.395024,-0.290298 -2.766783,-0.7204 -4.076051,-1.281689 -1.285919,-0.553876 -2.52743,-1.236696 -3.686243,-2.030189 -1.14718,-0.790389 -2.227623,-1.694726 -3.207451,-2.688272 -0.980847,-0.997856 -1.872797,-2.092506 -2.648169,-3.2593 -0.78174,-1.174207 -1.455477,-2.4334 -1.9999028,-3.739913 C 9.2331174,37.2412 8.8084112,35.8497 8.5213412,34.432515 8.2311274,32.980768 8.0827951,31.491439 8.0827951,30.000043 c 0,-1.492518 0.1482475,-2.985035 0.4386309,-4.433594 0.28707,-1.417271 0.7117762,-2.810838 1.2668993,-4.138813 0.5444247,-1.307547 1.2181617,-2.567774 1.9999017,-3.742067 0.775372,-1.167743 1.667322,-2.260325 2.648169,-3.2593 0.979828,-0.993633 2.060271,-1.895728 3.207451,-2.684998 1.158813,-0.796854 2.400324,-1.479588 3.686243,-2.034498 1.309268,-0.5624955 2.680942,-0.9936327 4.076051,-1.2817756 1.427884,-0.2967627 2.898135,-0.4473411 4.368387,-0.4473411 1.469148,0 2.9394,0.1505784 4.369405,0.4473411 1.392902,0.288229 2.764661,0.7193662 4.075033,1.2817756 1.285919,0.554824 2.526326,1.237644 3.685139,2.034498 1.14718,0.78927 2.227708,1.691365 3.209574,2.684998 0.979828,0.998975 1.871778,2.091557 2.646046,3.2593 0.7859,1.174293 1.458535,2.434606 2.000836,3.742067 0.555038,1.327975 0.978725,2.721542 1.264777,4.138813 0.293354,1.448559 0.442706,2.941076 0.442706,4.433594 z M 21.870184,12.98969 c -5.166089,2.476497 -9.021807,7.308904 -10.224092,13.13279 0.488387,0.0044 8.208312,0.103253 17.102928,-2.295835 -3.206348,-5.783031 -6.632011,-10.50244 -6.878836,-10.836955 z m 8.413702,13.732866 c -9.538636,2.898928 -18.691795,2.69034 -19.020131,2.677497 -0.0054,0.202123 -0.01486,0.397781 -0.01486,0.59999 0,4.831288 1.795446,9.235748 4.746563,12.566071 -0.0064,-0.0098 5.063352,-9.140159 15.060657,-12.421957 0.241475,-0.08171 0.487281,-0.154889 0.73088,-0.225825 -0.464952,-1.068792 -0.972441,-2.139826 -1.503111,-3.195776 z m 11.72508,-10.837041 c -3.261538,-2.919528 -7.544083,-4.690448 -12.234523,-4.690448 -1.505234,0 -2.965976,0.18497 -4.365244,0.526898 0.277475,0.378559 3.757224,5.064697 6.925449,10.970208 6.990148,-2.66026 9.628722,-6.737876 9.674318,-6.806658 z M 33.04965,33.034552 c -0.04127,0.01388 -0.08253,0.02586 -0.122859,0.04086 -10.930376,3.868198 -14.499839,11.663725 -14.538459,11.748824 3.145025,2.48284 7.089725,3.980788 11.386111,3.980788 2.565469,0 5.00918,-0.53026 7.232559,-1.490363 -0.274335,-1.643097 -1.350533,-7.402424 -3.957352,-14.280104 z m 7.07701,12.561762 c 4.159684,-2.84954 7.113942,-7.374411 7.938052,-12.615632 -0.381318,-0.124717 -5.564304,-1.790401 -11.543888,-0.817196 2.429956,6.778818 3.417257,12.299477 3.605836,13.432828 z M 33.760493,25.494479 c 0.429969,0.896837 0.846354,1.80962 1.230814,2.726972 0.136701,0.329085 0.270174,0.651706 0.400422,0.974239 6.364044,-0.812972 12.633841,0.554824 12.901893,0.610677 -0.04238,-4.458159 -1.613321,-8.549738 -4.212667,-11.753012 -0.03499,0.05042 -3.006222,4.408683 -10.320462,7.441124 z m 0,0"
           id="Path"
           sketch:type="MSShapeGroup"
           inkscape:connector-curvature="0"
           style="fill:#ffffff" />
      </g>
    </g>
  </g>
</svg>
