<svg
   xmlns:dc="http://purl.org/dc/elements/1.1/"
   xmlns:cc="http://creativecommons.org/ns#"
   xmlns:rdf="http://www.w3.org/1999/02/22-rdf-syntax-ns#"
   xmlns:svg="http://www.w3.org/2000/svg"
   xmlns="http://www.w3.org/2000/svg"
   xmlns:sodipodi="http://sodipodi.sourceforge.net/DTD/sodipodi-0.dtd"
   xmlns:inkscape="http://www.inkscape.org/namespaces/inkscape"
   id="facebook-square-icon"
   class="custom-icon"
   version="1.1"
   viewBox="0 0 512 512"
   inkscape:version="0.91 r13725"
   sodipodi:docname="facebook-2.svg"
   width="512"
   height="512">
  <title
     id="title3339">facebook-2</title>
  <metadata
     id="metadata11">
    <rdf:RDF>
      <cc:Work
         rdf:about="">
        <dc:format>image/svg+xml</dc:format>
        <dc:type
           rdf:resource="http://purl.org/dc/dcmitype/StillImage" />
        <dc:title>facebook-2</dc:title>
        <dc:creator>
          <cc:Agent>
            <dc:title>Thomas Boettcher</dc:title>
          </cc:Agent>
        </dc:creator>
        <dc:rights>
          <cc:Agent>
            <dc:title>https://creativecommons.org/licenses/by/4.0/</dc:title>
          </cc:Agent>
        </dc:rights>
        <dc:publisher>
          <cc:Agent>
            <dc:title>Thomas Boettcher</dc:title>
          </cc:Agent>
        </dc:publisher>
        <dc:identifier>ztatement</dc:identifier>
        <dc:relation>http://z-icon.com/</dc:relation>
      </cc:Work>
    </rdf:RDF>
  </metadata>
  <defs
     id="defs9" />
  <sodipodi:namedview
     pagecolor="#ffffff"
     bordercolor="#666666"
     borderopacity="1"
     objecttolerance="10"
     gridtolerance="10"
     guidetolerance="10"
     inkscape:pageopacity="0"
     inkscape:pageshadow="2"
     inkscape:window-width="1920"
     inkscape:window-height="1027"
     id="namedview7"
     showgrid="false"
     borderlayer="true"
     inkscape:showpageshadow="false"
     inkscape:zoom="1"
     inkscape:cx="173.24093"
     inkscape:cy="208.57627"
     inkscape:window-x="-8"
     inkscape:window-y="-8"
     inkscape:window-maximized="1"
     inkscape:current-layer="facebook-square-icon" />
  <circle
     style="opacity:1;fill:#000000;fill-opacity:1.0"
     class="outer-shape"
     cx="256"
     cy="256"
     id="circle3"
     r="256" />
  <path
     class="inner-shape"
     style="opacity:1;fill:#ffffff"
     d="m 353.30194,110.4 -193.19809,0 C 133.5379,110.4 111.8,132.13767 111.8,158.70628 l 0,193.18743 c 0,26.586 21.7379,48.30629 48.30385,48.30629 l 193.19809,0 C 379.87081,400.2 401.6,378.47971 401.6,351.89371 l 0,-193.18454 c 0,-26.5657 -21.72919,-48.30627 -48.29806,-48.30627 z m 4.88312,144.89855 -47.14756,0 0,126.78623 -54.3375,0 0,-126.78623 -26.18634,0 0,-41.47866 26.18634,0 0,-26.93954 c 0,-36.60427 15.7883,-58.37093 58.82941,-58.37093 l 49.59637,0 0,44.87508 -40.50826,0 c -12.02379,-0.0232 -13.51336,6.26831 -13.51336,17.97322 l -0.0666,22.45638 54.3375,0 -7.18994,41.47865 z"
     id="path5"
     inkscape:connector-curvature="0" />
</svg>
