<?xml version="1.0" encoding="UTF-8" standalone="no"?>
<svg
   xmlns:sketch="http://www.bohemiancoding.com/sketch/ns"
   xmlns:dc="http://purl.org/dc/elements/1.1/"
   xmlns:cc="http://creativecommons.org/ns#"
   xmlns:rdf="http://www.w3.org/1999/02/22-rdf-syntax-ns#"
   xmlns:svg="http://www.w3.org/2000/svg"
   xmlns="http://www.w3.org/2000/svg"
   xmlns:sodipodi="http://sodipodi.sourceforge.net/DTD/sodipodi-0.dtd"
   xmlns:inkscape="http://www.inkscape.org/namespaces/inkscape"
   width="512"
   height="512"
   viewBox="0 0 512 512"
   version="1.1"
   id="svg2"
   inkscape:version="0.91 r13725"
   sodipodi:docname="reddit.svg">
  <metadata
     id="metadata22">
    <rdf:RDF>
      <cc:Work
         rdf:about="">
        <dc:format>image/svg+xml</dc:format>
        <dc:type
           rdf:resource="http://purl.org/dc/dcmitype/StillImage" />
        <dc:title>reddit</dc:title>
        <dc:creator>
          <cc:Agent>
            <dc:title>Thomas Boettcher</dc:title>
          </cc:Agent>
        </dc:creator>
        <dc:rights>
          <cc:Agent>
            <dc:title>https://creativecommons.org/licenses/by/4.0/</dc:title>
          </cc:Agent>
        </dc:rights>
        <dc:publisher>
          <cc:Agent>
            <dc:title>Thomas Boettcher</dc:title>
          </cc:Agent>
        </dc:publisher>
        <dc:identifier>ztatement</dc:identifier>
        <dc:relation>http://z-icon.com/</dc:relation>
      </cc:Work>
    </rdf:RDF>
  </metadata>
  <sodipodi:namedview
     pagecolor="#ffffff"
     bordercolor="#666666"
     borderopacity="1"
     objecttolerance="10"
     gridtolerance="10"
     guidetolerance="10"
     inkscape:pageopacity="0"
     inkscape:pageshadow="2"
     inkscape:window-width="1920"
     inkscape:window-height="1027"
     id="namedview20"
     showgrid="false"
     borderlayer="true"
     inkscape:showpageshadow="false"
     inkscape:zoom="1"
     inkscape:cx="230.06467"
     inkscape:cy="189.74576"
     inkscape:window-x="-8"
     inkscape:window-y="-8"
     inkscape:window-maximized="1"
     inkscape:current-layer="svg2" />
  <title
     id="title4">reddit</title>
  <description>Created with Sketch (http://www.bohemiancoding.com/sketch)</description>
  <defs
     id="defs6" />
  <g
     id="Page-1"
     sketch:type="MSPage"
     style="fill:none;fill-rule:evenodd;stroke:none;stroke-width:1"
     transform="matrix(8.6630368,0,0,8.5333333,-5.8366522,0)">
    <g
       id="Reddit"
       sketch:type="MSArtboardGroup">
      <g
         sketch:type="MSLayerGroup"
         id="g10">
        <path
           d="m 0.67374206,30 c 0,-16.568543 13.23035994,-30 29.55083894,-30 16.320478,0 29.550838,13.431457 29.550838,30 0,16.568543 -13.23036,30 -29.550838,30 C 13.904102,60 0.67374206,46.568543 0.67374206,30 Z m 0,0"
           sketch:type="MSShapeGroup"
           id="path12"
           inkscape:connector-curvature="0"
           style="fill:#000000;fill-opacity:1.0" />
        <path
           d="m 49.896712,29.5907 c 0,-2.616061 -2.013405,-4.744032 -4.48803,-4.744032 -1.118934,0 -2.142657,0.436023 -2.929545,1.154796 -3.047348,-2.090688 -6.991933,-3.311116 -11.213466,-3.48429 l 2.23026,-7.68703 6.488447,1.535343 c -1.54e-4,0.01852 -0.0025,0.03639 -0.0025,0.05491 0,2.16168 1.663992,3.920477 3.70898,3.920477 2.044987,0 3.70898,-1.758716 3.70898,-3.920477 0,-2.161762 -1.663839,-3.920396 -3.70898,-3.920396 -1.536891,0 -2.857926,0.993319 -3.420044,2.404385 l -7.103589,-1.680901 c -0.359939,-0.08521 -0.721032,0.136542 -0.829076,0.509371 l -2.544016,8.767911 c -4.450606,0.07546 -8.630259,1.309533 -11.824226,3.500861 -0.786735,-0.718692 -1.810689,-1.154797 -2.929545,-1.154797 -2.474626,0 -4.487876,2.128052 -4.487876,4.744032 0,1.715666 0.866115,3.221361 2.160331,4.054663 -0.06609,0.445446 -0.100897,0.89601 -0.100897,1.35104 0,3.399734 1.871549,6.573984 5.269769,8.936781 3.30716,2.299765 7.69045,3.566654 12.342851,3.566654 4.652016,0 9.035614,-1.267133 12.342774,-3.566654 3.398297,-2.363041 5.269692,-5.537047 5.269692,-8.936781 0,-0.45503 -0.03466,-0.90535 -0.100897,-1.35104 1.29437,-0.833383 2.160639,-2.339241 2.160639,-4.054825 l 0,0 z M 43.690668,13.991968 c 1.266706,0 2.297345,1.089247 2.297345,2.428346 0,1.338775 -1.030639,2.428347 -2.297345,2.428347 -1.266552,0 -2.297345,-1.089572 -2.297345,-2.428347 -7.7e-5,-1.339018 1.030562,-2.428346 2.297345,-2.428346 l 0,0 z M 11.963777,29.5907 c 0,-1.793156 1.380051,-3.251983 3.076395,-3.251983 0.642344,0 1.238888,0.209808 1.732691,0.566798 -1.806769,1.509025 -3.060949,3.279925 -3.691459,5.190697 -0.681995,-0.596853 -1.117627,-1.498304 -1.117627,-2.505512 l 0,0 z m 18.260727,16.417088 c -8.933334,0 -16.201062,-4.939625 -16.201062,-11.011385 0,-0.260981 0.01437,-0.519525 0.04073,-0.776119 0.05126,-0.496375 0.150308,-0.984059 0.295544,-1.460615 0.542677,-1.779997 1.719244,-3.40412 3.362027,-4.758003 0.36432,-0.300619 0.752462,-0.587186 1.160814,-0.85962 2.924781,-1.951059 6.929689,-3.156541 11.34195,-3.156541 4.41203,0 8.417092,1.205644 11.341643,3.156541 0.408352,0.272434 0.796647,0.559082 1.16089,0.85962 1.64286,1.353802 2.819504,2.978006 3.362104,4.758003 0.145313,0.476556 0.244365,0.96424 0.295544,1.460615 0.02659,0.256351 0.04065,0.515138 0.04065,0.776119 0,6.071841 -7.267652,11.011385 -16.200832,11.011385 l 0,0 z m 17.1431,-13.911414 c -0.630356,-1.91069 -1.884767,-3.681834 -3.691536,-5.190778 0.493803,-0.35699 1.09027,-0.566798 1.732614,-0.566798 1.696421,0 3.076472,1.458746 3.076472,3.251983 0,1.007127 -0.435401,1.908578 -1.11755,2.505593 l 0,0 z m -11.765902,7.671597 c -1.337556,1.159102 -2.996016,1.675946 -5.377198,1.675946 -2.381336,0 -4.039719,-0.516844 -5.377506,-1.675946 -0.316369,-0.27414 -0.78343,-0.225079 -1.042704,0.109168 -0.259504,0.334572 -0.213243,0.828104 0.103279,1.102406 1.599136,1.385805 3.606316,2.030987 6.316931,2.030987 2.710615,0 4.717718,-0.645182 6.31693,-2.030987 0.316369,-0.274302 0.362783,-0.767834 0.103279,-1.102406 -0.259888,-0.334897 -0.726642,-0.383308 -1.043011,-0.109168 l 0,0 z m 0,0"
           sketch:type="MSShapeGroup"
           id="path14"
           inkscape:connector-curvature="0"
           style="fill:#ffffff;fill-opacity:1" />
        <path
           d="m 27.0061,32.762512 c 0,-1.558248 -1.19501,-2.82132 -2.669196,-2.82132 -1.474417,0 -2.66958,1.263072 -2.66958,2.82132 0,1.558655 1.19524,2.82197 2.66958,2.82197 1.474186,-1.62e-4 2.669196,-1.263315 2.669196,-2.82197 l 0,0 z m 0,0"
           id="Shape"
           sketch:type="MSShapeGroup"
           inkscape:connector-curvature="0"
           style="fill:#ffffff;fill-opacity:1" />
        <path
           d="m 36.238513,29.941192 c -1.47457,0 -2.669734,1.263072 -2.669734,2.82132 0,1.558655 1.195164,2.82197 2.669734,2.82197 1.474186,0 2.669426,-1.263315 2.669426,-2.82197 0,-1.558248 -1.19524,-2.82132 -2.669426,-2.82132 l 0,0 z m 0,0"
           id="path17"
           sketch:type="MSShapeGroup"
           inkscape:connector-curvature="0"
           style="fill:#ffffff;fill-opacity:1" />
      </g>
    </g>
  </g>
</svg>
