<?xml version="1.0" encoding="UTF-8" standalone="no"?>
<!-- Generate more at icons.mysitemyway.com -->

<svg
   xmlns:dc="http://purl.org/dc/elements/1.1/"
   xmlns:cc="http://creativecommons.org/ns#"
   xmlns:rdf="http://www.w3.org/1999/02/22-rdf-syntax-ns#"
   xmlns:svg="http://www.w3.org/2000/svg"
   xmlns="http://www.w3.org/2000/svg"
   xmlns:sodipodi="http://sodipodi.sourceforge.net/DTD/sodipodi-0.dtd"
   xmlns:inkscape="http://www.inkscape.org/namespaces/inkscape"
   id="youtube-icon"
   class="custom-icon"
   version="1.1"
   viewBox="0 0 512 512"
   inkscape:version="0.91 r13725"
   sodipodi:docname="youtube-2.svg"
   width="512"
   height="512">
  <title
     id="title3339">youtube-2</title>
  <metadata
     id="metadata11">
    <rdf:RDF>
      <cc:Work
         rdf:about="">
        <dc:format>image/svg+xml</dc:format>
        <dc:type
           rdf:resource="http://purl.org/dc/dcmitype/StillImage" />
        <dc:title>youtube-2</dc:title>
        <dc:creator>
          <cc:Agent>
            <dc:title>Thomas Boettcher</dc:title>
          </cc:Agent>
        </dc:creator>
        <dc:rights>
          <cc:Agent>
            <dc:title>https://creativecommons.org/licenses/by/4.0/</dc:title>
          </cc:Agent>
        </dc:rights>
        <dc:publisher>
          <cc:Agent>
            <dc:title>Thomas Boettcher</dc:title>
          </cc:Agent>
        </dc:publisher>
        <dc:identifier>ztatement</dc:identifier>
        <dc:relation>http://z-icon.com/</dc:relation>
      </cc:Work>
    </rdf:RDF>
  </metadata>
  <defs
     id="defs9" />
  <sodipodi:namedview
     pagecolor="#ffffff"
     bordercolor="#666666"
     borderopacity="1"
     objecttolerance="10"
     gridtolerance="10"
     guidetolerance="10"
     inkscape:pageopacity="0"
     inkscape:pageshadow="2"
     inkscape:window-width="1920"
     inkscape:window-height="1027"
     id="namedview7"
     showgrid="false"
     borderlayer="true"
     inkscape:showpageshadow="false"
     inkscape:zoom="1"
     inkscape:cx="201.10383"
     inkscape:cy="209.57627"
     inkscape:window-x="-8"
     inkscape:window-y="-8"
     inkscape:window-maximized="1"
     inkscape:current-layer="youtube-icon" />
  <circle
     style="opacity:1;fill:#000000;fill-opacity:1.0"
     class="outer-shape"
     cx="256"
     cy="256"
     id="circle3"
     r="256" />
  <path
     class="inner-shape"
     style="opacity:1;fill:#ffffff"
     d="m 404.5721,186.21281 c -3.16342,-16.25232 -17.2573,-28.3781 -33.44769,-29.87705 -38.65785,-2.37978 -77.4619,-4.31165 -116.19128,-4.33554 -38.73251,-0.0239 -77.38725,1.86919 -116.05132,4.21612 -16.24949,1.50787 -30.34336,13.57393 -33.49435,29.88599 C 101.79478,209.5925 100,233.3096 100,257.02372 c 0,23.71412 1.79789,47.42821 5.38746,70.9184 3.15099,16.31204 17.24175,29.8233 33.49435,31.31923 38.6734,2.34694 77.30637,4.73865 116.05132,4.73865 38.71383,0 77.54898,-2.09013 116.19128,-4.49082 16.19039,-1.50788 30.28427,-15.42222 33.44769,-31.66559 3.62379,-23.45136 5.4279,-47.1386 5.4279,-70.82883 0,-23.6723 -1.81034,-47.3476 -5.4279,-70.80195 z m -184.71659,113.53035 0,-86.46602 83.88828,43.23301 -83.88828,43.23301 z"
     id="path5"
     inkscape:connector-curvature="0" />
</svg>
