<?xml version="1.0" encoding="UTF-8" standalone="no"?>
<!-- Generator: Adobe Illustrator 21.0.0, SVG Export Plug-In . SVG Version: 6.00 Build 0)  -->

<svg
   xmlns:dc="http://purl.org/dc/elements/1.1/"
   xmlns:cc="http://creativecommons.org/ns#"
   xmlns:rdf="http://www.w3.org/1999/02/22-rdf-syntax-ns#"
   xmlns:svg="http://www.w3.org/2000/svg"
   xmlns="http://www.w3.org/2000/svg"
   xmlns:sodipodi="http://sodipodi.sourceforge.net/DTD/sodipodi-0.dtd"
   xmlns:inkscape="http://www.inkscape.org/namespaces/inkscape"
   version="1.1"
   id="YouTube"
   x="0px"
   y="0px"
   viewBox="0 0 512 512"
   xml:space="preserve"
   inkscape:version="0.91 r13725"
   sodipodi:docname="youtube.svg"
   width="512"
   height="512"><title
   id="title3351">youtube</title><metadata
   id="metadata23"><rdf:RDF><cc:Work
       rdf:about=""><dc:format>image/svg+xml</dc:format><dc:type
         rdf:resource="http://purl.org/dc/dcmitype/StillImage" /><dc:title>youtube</dc:title><dc:creator><cc:Agent><dc:title>Thomas Boettcher</dc:title></cc:Agent></dc:creator><dc:rights><cc:Agent><dc:title>https://creativecommons.org/licenses/by/4.0/</dc:title></cc:Agent></dc:rights><dc:publisher><cc:Agent><dc:title>Thomas Boettcher</dc:title></cc:Agent></dc:publisher><dc:identifier>ztatement</dc:identifier><dc:relation>http://z-icon.com/</dc:relation></cc:Work></rdf:RDF></metadata><defs
   id="defs21" /><sodipodi:namedview
   pagecolor="#ffffff"
   bordercolor="#666666"
   borderopacity="1"
   objecttolerance="10"
   gridtolerance="10"
   guidetolerance="10"
   inkscape:pageopacity="0"
   inkscape:pageshadow="2"
   inkscape:window-width="1920"
   inkscape:window-height="1027"
   id="namedview19"
   showgrid="false"
   borderlayer="true"
   inkscape:showpageshadow="false"
   inkscape:zoom="1"
   inkscape:cx="233.06869"
   inkscape:cy="209.57627"
   inkscape:window-x="-8"
   inkscape:window-y="-8"
   inkscape:window-maximized="1"
   inkscape:current-layer="YouTube" />
<g
   id="g3"
   transform="scale(5.12,5.12)">
	<path
   d="m 38.4,55.5 c 0,-1.3 0,-2.5 0,-3.8 -3.8,0 -7.6,0 -11.3,0 -0.1,0 0,0.1 0,0.1 0,1.2 0,2.4 0,3.6 1.3,0 2.7,-0.1 3.8,0 0,6.8 0,13.7 0,20.5 1.2,0 2.5,0 3.7,0 0,-6.8 -0.1,-13.8 0,-20.6 1.3,0.2 2.5,0.2 3.8,0.2 z"
   id="path5"
   inkscape:connector-curvature="0" />
	<path
   d="m 44.5,69.7 c 0,0.6 0.1,1.3 0,1.7 -0.1,0.5 -1.4,1.5 -2.1,1.4 -1,-0.1 -0.7,-2.1 -0.7,-3.2 0,-4 0,-7.8 0,-11.7 -1.1,0 -2.2,0 -3.2,0 -0.1,0 0,0.1 0,0.1 0,3.9 0,9 0,13.3 0,1.6 -0.1,3.1 0.5,3.9 1.2,1.8 4,0.3 4.9,-0.6 0.2,-0.2 0.4,-0.5 0.7,-0.6 0,0.6 0,1.3 0,1.9 1.1,0 2.2,0 3.3,0 0,-6 0,-12 0,-18 -1.1,0 -2.2,0 -3.3,0 -0.1,3.8 -0.1,8.1 -0.1,11.8 z"
   id="path7"
   inkscape:connector-curvature="0" />
	<g
   id="g9">
		<path
   d="m 46.4,35.6 c 0,0.8 -0.1,2.2 0.2,2.7 0.6,0.9 2.2,0.5 2.5,-0.3 0.3,-0.7 0.1,-1.9 0.1,-2.7 0,-2.2 0,-3.5 0,-5.6 0,-1 0.2,-2.2 -0.1,-2.7 -0.3,-0.6 -1.1,-0.7 -1.6,-0.6 -1.4,0.2 -1.1,2 -1.1,3.5 0,1.5 0,4.1 0,5.7 z"
   id="path11"
   inkscape:connector-curvature="0" />
		<path
   d="M 50,0 C 22.4,0 0,22.4 0,50 0,77.6 22.4,100 50,100 77.6,100 100,77.6 100,50 100,22.4 77.6,0 50,0 Z m 5.4,32.9 c 0,-3.3 0,-6.4 0,-9.2 1,-0.1 2.3,-0.1 3.3,0 0,2.2 0,4.5 0,6.9 0,2.4 -0.2,4.9 0,7 0.2,1.2 1.1,1.1 1.9,0.5 0.3,-0.2 0.8,-0.6 0.9,-0.9 0.1,-0.4 0,-1.2 0,-1.7 0,-3.7 0,-8.1 0,-11.7 1,-0.1 2.3,-0.1 3.3,0 0,5.9 0,11.8 0,17.7 -1,0.1 -2.3,0.1 -3.3,0 0,-0.6 0,-1.2 0,-1.8 -0.8,0.9 -3.4,3.2 -5.2,1.7 -1.4,-1.3 -0.9,-5.9 -0.9,-8.5 z m -8.2,-9.7 c 2.4,-0.2 4,0.7 4.8,2.1 0.9,1.5 0.6,4.9 0.6,7.1 0,2.2 0.2,5.7 -0.5,7.2 -1.1,2.1 -4.6,3.1 -6.9,1.6 -1.2,-0.7 -2,-2.1 -2.1,-3.6 -0.2,-1.6 0,-3.5 0,-5.3 0,-2.7 -0.3,-5.4 0.5,-6.9 0.6,-1.1 1.8,-2 3.6,-2.2 z M 30.7,17.4 c 1.1,-0.1 2.5,0 3.7,0 0.8,2.8 1.5,5.7 2.2,8.5 0.1,0.4 0.1,0.8 0.4,1.1 0.3,-0.3 0.3,-0.8 0.4,-1.1 0.7,-2.8 1.4,-5.8 2.1,-8.5 1.2,0 2.4,0 3.7,0 -1.1,4 -2.5,8.2 -3.7,12.3 -0.2,0.6 -0.5,1.2 -0.5,1.8 -0.1,0.8 0,1.7 0,2.5 0,2.6 0,5 0,7.5 -1.2,0 -2.5,0.1 -3.7,0 0,-1.6 0,-3.2 0,-4.7 0,-1.6 0.2,-3.2 0,-4.7 -0.1,-0.6 -0.4,-1.2 -0.5,-1.8 -1.5,-4.4 -2.7,-8.8 -4.1,-12.9 l 0,0 z M 77,73.9 c 0,4.9 -3.9,8.8 -8.8,8.8 l -36.5,0 c -4.9,0 -8.8,-3.9 -8.8,-8.8 l 0,-18.9 c 0,-4.9 3.9,-8.8 8.8,-8.8 l 36.5,0 c 4.9,0 8.8,3.9 8.8,8.8 l 0,18.9 z"
   id="path13"
   inkscape:connector-curvature="0" />
	</g>
	<path
   d="m 60.5,67.4 c 0,-2.1 0.1,-4.2 0,-5.6 -0.1,-1.5 -0.5,-2.8 -1.3,-3.4 -1.1,-0.9 -2.8,-0.7 -3.8,0 -0.4,0.3 -0.7,0.7 -1.1,0.9 0,-2.5 0,-5.1 0,-7.6 -1.1,0 -2.2,0 -3.3,0 -0.1,0 0,0.1 0,0.1 0,8.1 0,16.1 0,24.2 1.1,0 2.2,0 3.3,0 0,-0.4 0,-0.9 0,-1.3 0.9,1.1 2.9,2 4.6,1.2 0.9,-0.5 1.5,-1.6 1.6,-2.9 0.1,-1.6 0,-3.6 0,-5.6 z m -3.9,6 c -0.8,0.5 -1.7,-0.2 -2.2,-0.7 0,-2.4 0,-5.5 0,-8.2 0,-0.9 -0.2,-2.1 0,-2.7 0.2,-0.6 1.3,-1.1 2.1,-0.6 1.1,0.6 0.6,4.4 0.6,6.1 0,1.1 0,2.2 0,3.4 0,1 0.1,2.3 -0.5,2.7 z"
   id="path15"
   inkscape:connector-curvature="0" />
	<path
   d="m 72.7,69.4 c -1.1,0 -2.3,0 -3.4,0 -0.1,1.3 0.3,3.2 -0.6,3.8 -0.3,0.2 -1,0.4 -1.6,0.1 -1.4,-0.6 -0.5,-3.9 -0.8,-5.7 2.1,0 4.2,0 6.3,0 -0.1,-2.5 0.2,-4.9 -0.2,-6.9 -0.5,-2 -2.2,-3.3 -4.8,-3.2 -2.4,0.1 -4.3,1.8 -4.6,3.9 -0.3,2.1 -0.1,5.3 -0.1,8.1 0,3 0.3,5 2,6.2 1.4,1 4,1.1 5.7,0.1 1.8,-1 2.2,-3.2 2.1,-6.4 z m -6,-8 c 0.4,-0.6 1.5,-0.6 2.1,-0.2 0.8,0.6 0.5,2.2 0.6,3.4 -1,0 -2,0 -2.9,0 -0.1,-1.2 -0.3,-2.5 0.2,-3.2 z"
   id="path17"
   inkscape:connector-curvature="0" />
</g>
</svg>