<svg xmlns="http://www.w3.org/2000/svg" width="512" height="512"><title>alert</title><metadata>image/svg+xmlalertThomas Boettcherhttps://creativecommons.org/licenses/by/4.0/Thomas Boettcherztatementhttp://z-icon.com/</metadata><title>background</title><rect fill="none" height="402" width="582" y="-1" x="-1"/><title>Layer 1</title><g display="inline"><path fill="#000000" d="m264.1 315.6c8.8-2.3 19.8-11.8 24.4-21 6.4-12.8 16.6-80.1 27.3-180.1l4.6-42c2-6.6-0.2-13.3-3.4-19.9 -7.1-14.6-15.3-18.7-45.2-21.9 -18.7-2-40.3-0.6-57.6 3.7 -9.1 2.3-20.2 12.1-23.8 21 -2.7 6.9-2.6 9.8 1.7 50.9 9.5 89 19.8 162.3 25.4 181.2 4.5 15.3 21.6 29.4 36 29.7 2 0 6.7-0.8 10.5-1.8zM311 423.5a57 54.5 0 0 1-57 54.5 57 54.5 0 0 1-57-54.5 57 54.5 0 0 1 57-54.5 57 54.5 0 0 1 57 54.5"/></g></svg>