<svg xmlns="http://www.w3.org/2000/svg" width="512" height="512"><title>location</title><metadata>image/svg+xmllocationThomas Boettcherhttps://creativecommons.org/licenses/by/4.0/Thomas Boettcherztatementhttp://z-icon.com/</metadata><title>background</title><rect fill="none" height="402" width="582" y="-1" x="-1"/><title>Layer 1</title><g transform="matrix(1.2499999,0,0,1.2499999,0,0.000061035156) "/><path fill="#000" d="m250.5 495.6c-7.4-1.8-14.2-6.8-27.4-20 -26.2-26.2-52.5-58.9-76.4-94.9 -34.8-52.4-54.8-98.8-63.1-146.3 -2.2-12.7-2.5-52-0.5-63.4 11.3-62.8 47.4-112.2 100.6-137.4 46.5-22.1 100.2-21.4 146.8 1.8 61.5 30.6 100.5 95.4 100.3 166.8 -0.2 74-45 164.6-126.5 255.6 -28.1 31.4-41.6 40.9-53.8 37.9l0-0.1zm20.5-221.2c31.8-5.7 56.6-29 65.7-62 1.2-4.4 1.6-9.8 1.6-20.5 -0.1-13.5-0.3-15.1-3.2-24 -11.6-35-42.7-57.8-79-57.8 -33.8 0-64.1 20.4-76.8 51.6 -4.7 11.6-5.6 16.7-5.5 32.3 0.1 13.5 0.3 15.1 3.2 24 13.4 40.4 52.6 63.9 94.1 56.5l-0.1-0.1z"/></svg>