<svg xmlns="http://www.w3.org/2000/svg" width="512" height="512" class="custom-icon"><title>chrome</title><metadata>image/svg+xmlchromeThomas Boettcherhttps://creativecommons.org/licenses/by/4.0/Thomas Boettcherztatementhttp://z-icon.com/</metadata><title>background</title><rect fill="none" height="402" width="582" y="-1" x="-1"/><title>Layer 1</title><circle fill="#000000" r="256" cy="256" cx="256" class="outer-shape"/><path fill="#ffffff" d="m162.9 232l-53.8-93.2c34.4-43.1 87.4-70.7 146.9-70.7 68.8 0 128.9 37 161.7 92.1l-153.3 0c-2.8-0.2-5.5-0.4-8.4-0.4 -44.7 0-82.4 30.7-93.1 72.1l0 0zm160.4-44.6l107.7 0c8.3 21.3 12.9 44.4 12.9 68.6 0 103.1-83 186.8-185.8 187.9l76.9-133.1c10.8-15.6 17.2-34.4 17.2-54.8 0-26.9-11.1-51.2-28.9-68.6l0 0zm-135.6 68.6c0-37.6 30.6-68.3 68.3-68.3 37.6 0 68.3 30.6 68.3 68.3 0 37.6-30.6 68.3-68.3 68.3 -37.6 0-68.3-30.6-68.3-68.3zm94 92.7l-53.8 93.2c-90.5-13.5-159.9-91.6-159.9-185.9 0-33.5 8.8-64.9 24.1-92.1l76.7 132.9c15.4 32.7 48.6 55.4 87.1 55.4 8.9 0 17.6-1.2 25.8-3.5l0 0z" class="inner-shape"/></svg>