<?xml version="1.0" encoding="UTF-8" standalone="no"?>
<!-- Generate more at icons.mysitemyway.com -->

<svg
   xmlns:dc="http://purl.org/dc/elements/1.1/"
   xmlns:cc="http://creativecommons.org/ns#"
   xmlns:rdf="http://www.w3.org/1999/02/22-rdf-syntax-ns#"
   xmlns:svg="http://www.w3.org/2000/svg"
   xmlns="http://www.w3.org/2000/svg"
   xmlns:sodipodi="http://sodipodi.sourceforge.net/DTD/sodipodi-0.dtd"
   xmlns:inkscape="http://www.inkscape.org/namespaces/inkscape"
   id="chrome-icon"
   class="custom-icon"
   version="1.1"
   viewBox="0 0 512 512"
   inkscape:version="0.91 r13725"
   sodipodi:docname="chrome.svg"
   width="512"
   height="512">
  <title
     id="title3339">chrome</title>
  <metadata
     id="metadata11">
    <rdf:RDF>
      <cc:Work
         rdf:about="">
        <dc:format>image/svg+xml</dc:format>
        <dc:type
           rdf:resource="http://purl.org/dc/dcmitype/StillImage" />
        <dc:title>chrome</dc:title>
        <dc:creator>
          <cc:Agent>
            <dc:title>Thomas Boettcher</dc:title>
          </cc:Agent>
        </dc:creator>
        <dc:rights>
          <cc:Agent>
            <dc:title>https://creativecommons.org/licenses/by/4.0/</dc:title>
          </cc:Agent>
        </dc:rights>
        <dc:publisher>
          <cc:Agent>
            <dc:title>Thomas Boettcher</dc:title>
          </cc:Agent>
        </dc:publisher>
        <dc:identifier>ztatement</dc:identifier>
        <dc:relation>http://z-icon.com/</dc:relation>
      </cc:Work>
    </rdf:RDF>
  </metadata>
  <defs
     id="defs9" />
  <sodipodi:namedview
     pagecolor="#ffffff"
     bordercolor="#666666"
     borderopacity="1"
     objecttolerance="10"
     gridtolerance="10"
     guidetolerance="10"
     inkscape:pageopacity="0"
     inkscape:pageshadow="2"
     inkscape:window-width="1920"
     inkscape:window-height="1027"
     id="namedview7"
     showgrid="false"
     inkscape:showpageshadow="false"
     borderlayer="true"
     inkscape:zoom="1"
     inkscape:cx="312.28594"
     inkscape:cy="249.57627"
     inkscape:window-x="-8"
     inkscape:window-y="-8"
     inkscape:window-maximized="1"
     inkscape:current-layer="chrome-icon" />
  <circle
     style="opacity:1;fill:#000000;fill-opacity:1.0"
     class="outer-shape"
     cx="256"
     cy="256"
     id="circle3"
     r="256" />
  <path
     class="inner-shape"
     style="opacity:1;fill:#ffffff"
     d="M 162.86957,231.98516 109.08519,138.82377 C 143.52072,95.706801 196.5271,68.076 255.99436,68.076 c 68.79591,0 128.94722,36.97889 161.69519,92.13524 l -153.34,0 c -2.75499,-0.2368 -5.54005,-0.36837 -8.35519,-0.36837 -44.73386,0 -82.42804,30.70173 -93.12854,72.14603 z m 160.40978,-44.61674 107.71159,0 c 8.34767,21.26343 12.93306,44.41751 12.93306,68.64286 0,103.0808 -82.98807,186.76628 -185.79103,187.91272 l 76.85791,-133.12849 c 10.82079,-15.55384 17.17643,-34.44171 17.17643,-54.78423 0,-26.86025 -11.07259,-51.17581 -28.8842,-68.64286 z m -135.55093,68.64286 c 0,-37.64795 30.6244,-68.27449 68.26971,-68.27449 37.6453,0 68.2697,30.62654 68.2697,68.27449 0,37.64794 -30.6244,68.27448 -68.2697,68.27448 -37.64531,0 -68.26971,-30.62654 -68.26971,-68.27448 z m 94.03058,92.66521 -53.79941,93.19145 C 137.47328,428.32882 68.076,350.27773 68.076,256.01504 c 0,-33.48322 8.764868,-64.91415 24.114658,-92.14275 l 76.722612,132.8992 c 15.36858,32.70892 48.62394,55.41571 87.08862,55.41571 8.91896,0 17.55603,-1.22536 25.76087,-3.50695 z"
     id="path5"
     inkscape:connector-curvature="0" />
</svg>
