<svg xmlns="http://www.w3.org/2000/svg" width="512" height="512" class="custom-icon"><title>opera</title><metadata>image/svg+xmloperaThomas Boettcherhttps://creativecommons.org/licenses/by/4.0/Thomas Boettcherztatementhttp://z-icon.com/</metadata><title>background</title><rect fill="none" height="402" width="582" y="-1" x="-1"/><title>Layer 1</title><circle fill="#000000" r="256" cy="256" cx="256" class="outer-shape"/><path fill="#ffffff" d="m255.8 62.1c-95.7 0-164.5 75.7-164.5 189.1 0 101 66.9 192.7 164.5 192.7 98.6 0 165.9-91.7 165.9-192.7 0-114.4-71-189.1-165.9-189.1zm61 185.9c0 63.2-3.1 153.1-61 153.1l0 0c-57.1 0-59.4-90-59.4-153 0-74 6.4-144.9 59.4-144.9 53 0 61 71.8 61 144.8l0 0z" class="inner-shape"/></svg>