<svg
   xmlns:dc="http://purl.org/dc/elements/1.1/"
   xmlns:cc="http://creativecommons.org/ns#"
   xmlns:rdf="http://www.w3.org/1999/02/22-rdf-syntax-ns#"
   xmlns:svg="http://www.w3.org/2000/svg"
   xmlns="http://www.w3.org/2000/svg"
   xmlns:sodipodi="http://sodipodi.sourceforge.net/DTD/sodipodi-0.dtd"
   xmlns:inkscape="http://www.inkscape.org/namespaces/inkscape"
   id="safari-icon"
   class="custom-icon"
   version="1.1"
   viewBox="0 0 512 512"
   inkscape:version="0.91 r13725"
   sodipodi:docname="safari.svg"
   width="512"
   height="512">
  <title
     id="title3339">safari</title>
  <metadata
     id="metadata11">
    <rdf:RDF>
      <cc:Work
         rdf:about="">
        <dc:format>image/svg+xml</dc:format>
        <dc:type
           rdf:resource="http://purl.org/dc/dcmitype/StillImage" />
        <dc:title>safari</dc:title>
        <dc:creator>
          <cc:Agent>
            <dc:title>Thomas Boettcher</dc:title>
          </cc:Agent>
        </dc:creator>
        <dc:rights>
          <cc:Agent>
            <dc:title>https://creativecommons.org/licenses/by/4.0/</dc:title>
          </cc:Agent>
        </dc:rights>
        <dc:publisher>
          <cc:Agent>
            <dc:title>Thomas Boettcher</dc:title>
          </cc:Agent>
        </dc:publisher>
        <dc:identifier>ztatement</dc:identifier>
        <dc:relation>http://z-icon.com/</dc:relation>
      </cc:Work>
    </rdf:RDF>
  </metadata>
  <defs
     id="defs9" />
  <sodipodi:namedview
     pagecolor="#ffffff"
     bordercolor="#666666"
     borderopacity="1"
     objecttolerance="10"
     gridtolerance="10"
     guidetolerance="10"
     inkscape:pageopacity="0"
     inkscape:pageshadow="2"
     inkscape:window-width="1920"
     inkscape:window-height="1027"
     id="namedview7"
     showgrid="false"
     borderlayer="true"
     inkscape:showpageshadow="false"
     inkscape:zoom="1"
     inkscape:cx="138.49652"
     inkscape:cy="208.57627"
     inkscape:window-x="-8"
     inkscape:window-y="-8"
     inkscape:window-maximized="1"
     inkscape:current-layer="safari-icon" />
  <circle
     style="opacity:1;fill:#000000;fill-opacity:1.0"
     class="outer-shape"
     cx="256"
     cy="256"
     id="circle3"
     r="256" />
  <path
     class="inner-shape"
     style="opacity:1;fill:#ffffff"
     d="m 259.99996,83.250011 c -9.02402,0 -17.89056,0.651 -26.55745,1.89348 -0.11148,-0.28272 -0.23425,-0.56172 -0.36865,-0.833291 4.81153,-3.634427 7.33056,-8.656427 6.23616,-13.641227 C 237.90844,64.28916 230.91196,60 221.89564,60 c -1.94304,0 -3.92064,0.2046 -5.87904,0.606384 -11.31264,2.328709 -18.80448,10.397389 -17.05729,18.369349 1.06369,4.847158 5.36063,8.477878 11.31265,9.947278 -0.0115,0.353389 -0.006,0.706789 0.0155,1.067629 C 135.05408,110.8896 80,178.02816 80,257.625 80,353.92836 160.59008,432 260,432 359.40992,432 440,353.92836 440,257.625 440,161.32165 359.40992,83.250011 260,83.250011 Z m -55.16928,-5.483278 c -1.01377,-4.62396 4.68096,-9.8766 12.43391,-11.47248 1.55137,-0.319909 3.1104,-0.47988 4.63105,-0.47988 6.01343,0 10.75967,2.492387 11.54303,6.063587 0.59905,2.726773 -1.15201,5.669293 -4.27007,7.95708 -2.63808,-1.804187 -6.00576,-2.58912 -9.41186,-1.88604 -3.3907,0.699373 -6.12862,2.726773 -7.78366,5.397731 -3.82082,-0.889091 -6.5664,-2.935078 -7.14625,-5.576291 z M 356.51835,351.1272 c -16.48895,15.97367 -36.45313,27.34572 -58.24129,33.47627 l -15.89758,-24.98351 -4.02817,29.04575 c -6.03265,0.7812 -12.16128,1.18668 -18.35135,1.18668 -36.4608,0 -70.73664,-13.75655 -96.51841,-38.73263 -16.48896,-15.97368 -28.22783,-35.31396 -34.55615,-56.42123 l 25.78943,-15.40082 -29.98657,-3.90227 c -0.8064,-5.84412 -1.22494,-11.78124 -1.22494,-17.77788 0,-35.3214 14.19649,-68.52612 39.98208,-93.5022 16.48895,-15.97367 36.45312,-27.34572 58.24128,-33.48 l 15.89758,24.98353 4.03202,-29.04948 c 6.03264,-0.7812 12.15743,-1.18667 18.35135,-1.18667 36.4608,0 70.73665,13.75283 96.51839,38.73262 16.48897,15.97368 28.22784,35.31396 34.55619,56.42123 l -25.78945,15.40081 29.98655,3.90229 c 0.8064,5.84411 1.22495,11.7775 1.22495,17.77787 0,35.3214 -14.20032,68.52612 -39.98206,93.5022 z m -3.17951,-183.92423 -73.86626,54.38639 c -5.49118,-2.78255 -11.5776,-4.38216 -17.77918,-4.62397 l -19.15393,-38.93723 -1.152,43.10736 c -4.98047,2.37336 -9.41567,5.6916 -13.07905,9.79104 l -23.65824,-8.12448 17.28386,17.6328 c -2.37698,4.91039 -3.69792,10.18164 -3.91296,15.55704 l -40.1856,18.55163 44.52863,1.116 c 0.142,0.27902 0.29185,0.55428 0.43777,0.82957 l -56.14082,71.5579 73.86626,-54.38639 c 5.4912,2.78256 11.5776,4.38216 17.77919,4.62397 l 19.15392,38.93724 1.14816,-43.10737 c 4.98047,-2.37336 9.41567,-5.69159 13.07904,-9.79103 l 23.65824,8.12448 -17.28386,-17.6328 c 2.37698,-4.9104 3.70177,-10.18164 3.91299,-15.55704 l 40.18174,-18.55164 -44.52479,-1.116 c -0.14197,-0.27899 -0.29184,-0.55428 -0.43775,-0.82957 l 56.13695,-71.5579 z m -93.30048,54.28967 0,0 z m -7.52257,2.01996 c 2.52288,-0.5208 5.04192,-0.77004 7.52257,-0.77004 1.55519,0 3.09504,0.0967 4.61185,0.29016 l 0.0346,0.006 -0.004,-0.006 c 3.27553,0.41664 6.43968,1.27225 9.42335,2.50355 l -26.83007,19.75321 -20.39423,25.99164 c -0.89088,-2.03113 -1.60128,-4.17012 -2.09281,-6.41327 -4.13569,-18.83809 8.27903,-37.35997 27.72864,-41.36269 z m 26.28095,63.85752 0,0 0,0 c -3.39454,2.01252 -7.1923,3.51911 -11.30878,4.36728 -2.52288,0.5208 -5.04192,0.77003 -7.51873,0.77003 -1.55519,0 -3.09503,-0.10046 -4.61569,-0.29015 l -0.0268,-0.003 c -3.27551,-0.41665 -6.43968,-1.27224 -9.42336,-2.50356 l 26.8301,-19.7532 20.39424,-25.99535 c 0.89087,2.03111 1.60129,4.17383 2.0928,6.41328 3.26016,14.85023 -3.77089,29.49959 -16.41984,36.99911 z"
     id="path5"
     inkscape:connector-curvature="0" />
</svg>
